<svg xmlns="http://www.w3.org/2000/svg" viewBox="0 0 1200 260" role="img" aria-labelledby="bannerTitle bannerDesc">
  <title id="bannerTitle">Farhaan Khan</title>
  <desc id="bannerDesc">Farhaan Khan — Full Stack Developer, AI-Assisted Builder, Student Engineer</desc>

  <defs>
    <linearGradient id="bgGrad" x1="0%" y1="0%" x2="100%" y2="100%">
      <stop offset="0%" stop-color="#020617" />
      <stop offset="55%" stop-color="#080B16" />
      <stop offset="100%" stop-color="#0F0A1F" />
    </linearGradient>
    <radialGradient id="accentGlow" cx="50%" cy="50%" r="65%">
      <stop offset="0%" stop-color="#D8B4FE" />
      <stop offset="55%" stop-color="#A855F7" />
      <stop offset="100%" stop-color="#7C3AED" />
    </radialGradient>
    <linearGradient id="hairline" x1="0%" y1="0%" x2="100%" y2="0%">
      <stop offset="0%" stop-color="#8B5CF6" stop-opacity="0" />
      <stop offset="50%" stop-color="#8B5CF6" stop-opacity="0.55" />
      <stop offset="100%" stop-color="#8B5CF6" stop-opacity="0" />
    </linearGradient>
  </defs>

  <!-- background -->
  <rect x="0" y="0" width="1200" height="260" fill="url(#bgGrad)" />

  <!-- faint corner marks -->
  <g stroke="#4C1D95" stroke-opacity="0.5" stroke-width="1.2">
    <path d="M 18 18 L 18 34 M 18 18 L 34 18" fill="none" />
    <path d="M 1182 18 L 1182 34 M 1182 18 L 1166 18" fill="none" />
    <path d="M 18 242 L 18 226 M 18 242 L 34 242" fill="none" />
    <path d="M 1182 242 L 1182 226 M 1182 242 L 1166 242" fill="none" />
  </g>

  <!-- sparse decorative inactive dots -->
  <g>
      <circle cx="761.7" cy="15.6" r="1.0" fill="#C4B5FD" fill-opacity="0.13" />
      <circle cx="805.0" cy="213.0" r="1.0" fill="#C4B5FD" fill-opacity="0.06" />
      <circle cx="273.6" cy="27.6" r="1.4" fill="#C4B5FD" fill-opacity="0.12" />
      <circle cx="652.1" cy="20.5" r="1.0" fill="#C4B5FD" fill-opacity="0.13" />
      <circle cx="414.7" cy="243.5" r="1.0" fill="#C4B5FD" fill-opacity="0.07" />
      <circle cx="132.2" cy="36.2" r="1.4" fill="#C4B5FD" fill-opacity="0.11" />
      <circle cx="164.8" cy="212.8" r="1.4" fill="#C4B5FD" fill-opacity="0.12" />
      <circle cx="1019.6" cy="29.4" r="1.4" fill="#C4B5FD" fill-opacity="0.08" />
      <circle cx="355.7" cy="17.0" r="1.2" fill="#C4B5FD" fill-opacity="0.09" />
      <circle cx="757.4" cy="24.1" r="1.4" fill="#C4B5FD" fill-opacity="0.09" />
      <circle cx="1106.5" cy="31.2" r="1.4" fill="#C4B5FD" fill-opacity="0.13" />
      <circle cx="209.5" cy="24.5" r="1.4" fill="#C4B5FD" fill-opacity="0.09" />
      <circle cx="911.2" cy="238.8" r="1.2" fill="#C4B5FD" fill-opacity="0.09" />
      <circle cx="264.7" cy="240.7" r="1.0" fill="#C4B5FD" fill-opacity="0.13" />
      <circle cx="478.9" cy="226.1" r="1.0" fill="#C4B5FD" fill-opacity="0.08" />
      <circle cx="671.2" cy="230.5" r="1.2" fill="#C4B5FD" fill-opacity="0.08" />
      <circle cx="1177.1" cy="27.7" r="1.0" fill="#C4B5FD" fill-opacity="0.08" />
      <circle cx="205.6" cy="230.9" r="1.2" fill="#C4B5FD" fill-opacity="0.12" />
      <circle cx="562.9" cy="21.3" r="1.4" fill="#C4B5FD" fill-opacity="0.13" />
      <circle cx="810.8" cy="219.3" r="1.0" fill="#C4B5FD" fill-opacity="0.09" />
      <circle cx="203.5" cy="235.3" r="1.4" fill="#C4B5FD" fill-opacity="0.14" />
      <circle cx="608.9" cy="17.7" r="1.0" fill="#C4B5FD" fill-opacity="0.10" />
      <circle cx="207.4" cy="38.8" r="1.4" fill="#C4B5FD" fill-opacity="0.09" />
      <circle cx="42.6" cy="240.8" r="1.0" fill="#C4B5FD" fill-opacity="0.07" />
      <circle cx="1038.5" cy="213.0" r="1.0" fill="#C4B5FD" fill-opacity="0.16" />
      <circle cx="637.9" cy="18.1" r="1.2" fill="#C4B5FD" fill-opacity="0.11" />
      <circle cx="723.6" cy="39.1" r="1.4" fill="#C4B5FD" fill-opacity="0.09" />
      <circle cx="1174.4" cy="225.3" r="1.0" fill="#C4B5FD" fill-opacity="0.08" />
      <circle cx="94.3" cy="15.5" r="1.0" fill="#C4B5FD" fill-opacity="0.07" />
      <circle cx="752.1" cy="241.7" r="1.0" fill="#C4B5FD" fill-opacity="0.11" />
      <circle cx="343.0" cy="228.9" r="1.0" fill="#C4B5FD" fill-opacity="0.14" />
      <circle cx="956.7" cy="213.4" r="1.2" fill="#C4B5FD" fill-opacity="0.10" />
      <circle cx="561.7" cy="33.2" r="1.0" fill="#C4B5FD" fill-opacity="0.10" />
      <circle cx="413.6" cy="36.5" r="1.4" fill="#C4B5FD" fill-opacity="0.10" />
      <circle cx="509.4" cy="22.0" r="1.2" fill="#C4B5FD" fill-opacity="0.14" />
      <circle cx="1012.9" cy="17.4" r="1.0" fill="#C4B5FD" fill-opacity="0.15" />
      <circle cx="1004.5" cy="19.2" r="1.2" fill="#C4B5FD" fill-opacity="0.15" />
      <circle cx="211.0" cy="223.7" r="1.2" fill="#C4B5FD" fill-opacity="0.10" />
      <circle cx="1130.5" cy="229.5" r="1.0" fill="#C4B5FD" fill-opacity="0.08" />
      <circle cx="272.5" cy="16.5" r="1.4" fill="#C4B5FD" fill-opacity="0.09" />
      <circle cx="78.2" cy="26.9" r="1.0" fill="#C4B5FD" fill-opacity="0.16" />
      <circle cx="112.9" cy="19.6" r="1.2" fill="#C4B5FD" fill-opacity="0.07" />
      <circle cx="1052.7" cy="21.2" r="1.2" fill="#C4B5FD" fill-opacity="0.13" />
      <circle cx="675.7" cy="219.1" r="1.0" fill="#C4B5FD" fill-opacity="0.09" />
      <circle cx="171.8" cy="31.1" r="1.0" fill="#C4B5FD" fill-opacity="0.11" />
      <circle cx="1178.2" cy="39.9" r="1.4" fill="#C4B5FD" fill-opacity="0.09" />
  </g>

  <!-- top-left meta label -->
  <g font-family="'JetBrains Mono','Fira Code',ui-monospace,monospace" fill="#8B87A8">
    <text x="30" y="30" font-size="11" letter-spacing="2">FAR-200 / README.md</text>
  </g>

  <!-- top-right status indicator -->
  <g font-family="'JetBrains Mono','Fira Code',ui-monospace,monospace">
    <circle cx="1040" cy="26" r="4" fill="#A855F7">
      <animate attributeName="opacity" values="1;0.35;1" dur="2.4s" repeatCount="indefinite" />
    </circle>
    <text x="1052" y="30" font-size="11" letter-spacing="2" fill="#8B87A8">BUILDING</text>
  </g>

  <!-- dot-matrix name -->
  <g>
      <circle cx="165.5" cy="58.0" r="2.1" fill="#E7E9F5" fill-opacity="0.92" />
      <circle cx="176.5" cy="58.0" r="2.1" fill="#E7E9F5" fill-opacity="0.92" />
      <circle cx="187.5" cy="58.0" r="2.1" fill="#E7E9F5" fill-opacity="0.92" />
      <circle cx="198.5" cy="58.0" r="2.1" fill="#E7E9F5" fill-opacity="0.92" />
      <circle cx="209.5" cy="58.0" r="2.6" fill="url(#accentGlow)" />
      <circle cx="165.5" cy="69.0" r="2.1" fill="#E7E9F5" fill-opacity="0.92" />
      <circle cx="165.5" cy="80.0" r="2.1" fill="#E7E9F5" fill-opacity="0.92" />
      <circle cx="165.5" cy="91.0" r="2.1" fill="#E7E9F5" fill-opacity="0.92" />
      <circle cx="176.5" cy="91.0" r="2.1" fill="#E7E9F5" fill-opacity="0.92" />
      <circle cx="187.5" cy="91.0" r="2.6" fill="url(#accentGlow)" />
      <circle cx="198.5" cy="91.0" r="2.1" fill="#E7E9F5" fill-opacity="0.92" />
      <circle cx="165.5" cy="102.0" r="2.1" fill="#E7E9F5" fill-opacity="0.92" />
      <circle cx="165.5" cy="113.0" r="2.1" fill="#E7E9F5" fill-opacity="0.92" />
      <circle cx="165.5" cy="124.0" r="2.1" fill="#E7E9F5" fill-opacity="0.92" />
      <circle cx="253.5" cy="58.0" r="2.6" fill="url(#accentGlow)" />
      <circle cx="264.5" cy="58.0" r="2.1" fill="#E7E9F5" fill-opacity="0.92" />
      <circle cx="275.5" cy="58.0" r="2.1" fill="#E7E9F5" fill-opacity="0.92" />
      <circle cx="242.5" cy="69.0" r="2.1" fill="#E7E9F5" fill-opacity="0.92" />
      <circle cx="286.5" cy="69.0" r="2.1" fill="#E7E9F5" fill-opacity="0.92" />
      <circle cx="242.5" cy="80.0" r="2.6" fill="url(#accentGlow)" />
      <circle cx="286.5" cy="80.0" r="2.1" fill="#E7E9F5" fill-opacity="0.92" />
      <circle cx="242.5" cy="91.0" r="2.1" fill="#E7E9F5" fill-opacity="0.92" />
      <circle cx="253.5" cy="91.0" r="2.1" fill="#E7E9F5" fill-opacity="0.92" />
      <circle cx="264.5" cy="91.0" r="2.1" fill="#E7E9F5" fill-opacity="0.92" />
      <circle cx="275.5" cy="91.0" r="2.6" fill="url(#accentGlow)" />
      <circle cx="286.5" cy="91.0" r="2.1" fill="#E7E9F5" fill-opacity="0.92" />
      <circle cx="242.5" cy="102.0" r="2.1" fill="#E7E9F5" fill-opacity="0.92" />
      <circle cx="286.5" cy="102.0" r="2.1" fill="#E7E9F5" fill-opacity="0.92" />
      <circle cx="242.5" cy="113.0" r="2.1" fill="#E7E9F5" fill-opacity="0.92" />
      <circle cx="286.5" cy="113.0" r="2.6" fill="url(#accentGlow)" />
      <circle cx="242.5" cy="124.0" r="2.1" fill="#E7E9F5" fill-opacity="0.92" />
      <circle cx="286.5" cy="124.0" r="2.1" fill="#E7E9F5" fill-opacity="0.92" />
      <circle cx="319.5" cy="58.0" r="2.1" fill="#E7E9F5" fill-opacity="0.92" />
      <circle cx="330.5" cy="58.0" r="2.1" fill="#E7E9F5" fill-opacity="0.92" />
      <circle cx="341.5" cy="58.0" r="2.6" fill="url(#accentGlow)" />
      <circle cx="352.5" cy="58.0" r="2.1" fill="#E7E9F5" fill-opacity="0.92" />
      <circle cx="319.5" cy="69.0" r="2.1" fill="#E7E9F5" fill-opacity="0.92" />
      <circle cx="363.5" cy="69.0" r="2.1" fill="#E7E9F5" fill-opacity="0.92" />
      <circle cx="319.5" cy="80.0" r="2.1" fill="#E7E9F5" fill-opacity="0.92" />
      <circle cx="363.5" cy="80.0" r="2.6" fill="url(#accentGlow)" />
      <circle cx="319.5" cy="91.0" r="2.1" fill="#E7E9F5" fill-opacity="0.92" />
      <circle cx="330.5" cy="91.0" r="2.1" fill="#E7E9F5" fill-opacity="0.92" />
      <circle cx="341.5" cy="91.0" r="2.1" fill="#E7E9F5" fill-opacity="0.92" />
      <circle cx="352.5" cy="91.0" r="2.1" fill="#E7E9F5" fill-opacity="0.92" />
      <circle cx="319.5" cy="102.0" r="2.6" fill="url(#accentGlow)" />
      <circle cx="341.5" cy="102.0" r="2.1" fill="#E7E9F5" fill-opacity="0.92" />
      <circle cx="319.5" cy="113.0" r="2.1" fill="#E7E9F5" fill-opacity="0.92" />
      <circle cx="352.5" cy="113.0" r="2.1" fill="#E7E9F5" fill-opacity="0.92" />
      <circle cx="319.5" cy="124.0" r="2.1" fill="#E7E9F5" fill-opacity="0.92" />
      <circle cx="363.5" cy="124.0" r="2.6" fill="url(#accentGlow)" />
      <circle cx="396.5" cy="58.0" r="2.1" fill="#E7E9F5" fill-opacity="0.92" />
      <circle cx="440.5" cy="58.0" r="2.1" fill="#E7E9F5" fill-opacity="0.92" />
      <circle cx="396.5" cy="69.0" r="2.1" fill="#E7E9F5" fill-opacity="0.92" />
      <circle cx="440.5" cy="69.0" r="2.1" fill="#E7E9F5" fill-opacity="0.92" />
      <circle cx="396.5" cy="80.0" r="2.6" fill="url(#accentGlow)" />
      <circle cx="440.5" cy="80.0" r="2.1" fill="#E7E9F5" fill-opacity="0.92" />
      <circle cx="396.5" cy="91.0" r="2.1" fill="#E7E9F5" fill-opacity="0.92" />
      <circle cx="407.5" cy="91.0" r="2.1" fill="#E7E9F5" fill-opacity="0.92" />
      <circle cx="418.5" cy="91.0" r="2.1" fill="#E7E9F5" fill-opacity="0.92" />
      <circle cx="429.5" cy="91.0" r="2.6" fill="url(#accentGlow)" />
      <circle cx="440.5" cy="91.0" r="2.1" fill="#E7E9F5" fill-opacity="0.92" />
      <circle cx="396.5" cy="102.0" r="2.1" fill="#E7E9F5" fill-opacity="0.92" />
      <circle cx="440.5" cy="102.0" r="2.1" fill="#E7E9F5" fill-opacity="0.92" />
      <circle cx="396.5" cy="113.0" r="2.1" fill="#E7E9F5" fill-opacity="0.92" />
      <circle cx="440.5" cy="113.0" r="2.6" fill="url(#accentGlow)" />
      <circle cx="396.5" cy="124.0" r="2.1" fill="#E7E9F5" fill-opacity="0.92" />
      <circle cx="440.5" cy="124.0" r="2.1" fill="#E7E9F5" fill-opacity="0.92" />
      <circle cx="484.5" cy="58.0" r="2.1" fill="#E7E9F5" fill-opacity="0.92" />
      <circle cx="495.5" cy="58.0" r="2.1" fill="#E7E9F5" fill-opacity="0.92" />
      <circle cx="506.5" cy="58.0" r="2.6" fill="url(#accentGlow)" />
      <circle cx="473.5" cy="69.0" r="2.1" fill="#E7E9F5" fill-opacity="0.92" />
      <circle cx="517.5" cy="69.0" r="2.1" fill="#E7E9F5" fill-opacity="0.92" />
      <circle cx="473.5" cy="80.0" r="2.1" fill="#E7E9F5" fill-opacity="0.92" />
      <circle cx="517.5" cy="80.0" r="2.1" fill="#E7E9F5" fill-opacity="0.92" />
      <circle cx="473.5" cy="91.0" r="2.6" fill="url(#accentGlow)" />
      <circle cx="484.5" cy="91.0" r="2.1" fill="#E7E9F5" fill-opacity="0.92" />
      <circle cx="495.5" cy="91.0" r="2.1" fill="#E7E9F5" fill-opacity="0.92" />
      <circle cx="506.5" cy="91.0" r="2.1" fill="#E7E9F5" fill-opacity="0.92" />
      <circle cx="517.5" cy="91.0" r="2.1" fill="#E7E9F5" fill-opacity="0.92" />
      <circle cx="473.5" cy="102.0" r="2.6" fill="url(#accentGlow)" />
      <circle cx="517.5" cy="102.0" r="2.1" fill="#E7E9F5" fill-opacity="0.92" />
      <circle cx="473.5" cy="113.0" r="2.1" fill="#E7E9F5" fill-opacity="0.92" />
      <circle cx="517.5" cy="113.0" r="2.1" fill="#E7E9F5" fill-opacity="0.92" />
      <circle cx="473.5" cy="124.0" r="2.1" fill="#E7E9F5" fill-opacity="0.92" />
      <circle cx="517.5" cy="124.0" r="2.6" fill="url(#accentGlow)" />
      <circle cx="561.5" cy="58.0" r="2.1" fill="#E7E9F5" fill-opacity="0.92" />
      <circle cx="572.5" cy="58.0" r="2.1" fill="#E7E9F5" fill-opacity="0.92" />
      <circle cx="583.5" cy="58.0" r="2.1" fill="#E7E9F5" fill-opacity="0.92" />
      <circle cx="550.5" cy="69.0" r="2.1" fill="#E7E9F5" fill-opacity="0.92" />
      <circle cx="594.5" cy="69.0" r="2.6" fill="url(#accentGlow)" />
      <circle cx="550.5" cy="80.0" r="2.1" fill="#E7E9F5" fill-opacity="0.92" />
      <circle cx="594.5" cy="80.0" r="2.1" fill="#E7E9F5" fill-opacity="0.92" />
      <circle cx="550.5" cy="91.0" r="2.1" fill="#E7E9F5" fill-opacity="0.92" />
      <circle cx="561.5" cy="91.0" r="2.1" fill="#E7E9F5" fill-opacity="0.92" />
      <circle cx="572.5" cy="91.0" r="2.6" fill="url(#accentGlow)" />
      <circle cx="583.5" cy="91.0" r="2.1" fill="#E7E9F5" fill-opacity="0.92" />
      <circle cx="594.5" cy="91.0" r="2.1" fill="#E7E9F5" fill-opacity="0.92" />
      <circle cx="550.5" cy="102.0" r="2.1" fill="#E7E9F5" fill-opacity="0.92" />
      <circle cx="594.5" cy="102.0" r="2.1" fill="#E7E9F5" fill-opacity="0.92" />
      <circle cx="550.5" cy="113.0" r="2.6" fill="url(#accentGlow)" />
      <circle cx="594.5" cy="113.0" r="2.1" fill="#E7E9F5" fill-opacity="0.92" />
      <circle cx="550.5" cy="124.0" r="2.1" fill="#E7E9F5" fill-opacity="0.92" />
      <circle cx="594.5" cy="124.0" r="2.1" fill="#E7E9F5" fill-opacity="0.92" />
      <circle cx="627.5" cy="58.0" r="2.1" fill="#E7E9F5" fill-opacity="0.92" />
      <circle cx="671.5" cy="58.0" r="2.6" fill="url(#accentGlow)" />
      <circle cx="627.5" cy="69.0" r="2.1" fill="#E7E9F5" fill-opacity="0.92" />
      <circle cx="638.5" cy="69.0" r="2.1" fill="#E7E9F5" fill-opacity="0.92" />
      <circle cx="671.5" cy="69.0" r="2.1" fill="#E7E9F5" fill-opacity="0.92" />
      <circle cx="627.5" cy="80.0" r="2.1" fill="#E7E9F5" fill-opacity="0.92" />
      <circle cx="649.5" cy="80.0" r="2.6" fill="url(#accentGlow)" />
      <circle cx="671.5" cy="80.0" r="2.1" fill="#E7E9F5" fill-opacity="0.92" />
      <circle cx="627.5" cy="91.0" r="2.1" fill="#E7E9F5" fill-opacity="0.92" />
      <circle cx="649.5" cy="91.0" r="2.1" fill="#E7E9F5" fill-opacity="0.92" />
      <circle cx="671.5" cy="91.0" r="2.1" fill="#E7E9F5" fill-opacity="0.92" />
      <circle cx="627.5" cy="102.0" r="2.6" fill="url(#accentGlow)" />
      <circle cx="660.5" cy="102.0" r="2.1" fill="#E7E9F5" fill-opacity="0.92" />
      <circle cx="671.5" cy="102.0" r="2.1" fill="#E7E9F5" fill-opacity="0.92" />
      <circle cx="627.5" cy="113.0" r="2.1" fill="#E7E9F5" fill-opacity="0.92" />
      <circle cx="671.5" cy="113.0" r="2.1" fill="#E7E9F5" fill-opacity="0.92" />
      <circle cx="627.5" cy="124.0" r="2.6" fill="url(#accentGlow)" />
      <circle cx="671.5" cy="124.0" r="2.1" fill="#E7E9F5" fill-opacity="0.92" />
      <circle cx="759.5" cy="58.0" r="2.1" fill="#E7E9F5" fill-opacity="0.92" />
      <circle cx="803.5" cy="58.0" r="2.1" fill="#E7E9F5" fill-opacity="0.92" />
      <circle cx="759.5" cy="69.0" r="2.1" fill="#E7E9F5" fill-opacity="0.92" />
      <circle cx="792.5" cy="69.0" r="2.6" fill="url(#accentGlow)" />
      <circle cx="759.5" cy="80.0" r="2.1" fill="#E7E9F5" fill-opacity="0.92" />
      <circle cx="781.5" cy="80.0" r="2.1" fill="#E7E9F5" fill-opacity="0.92" />
      <circle cx="759.5" cy="91.0" r="2.1" fill="#E7E9F5" fill-opacity="0.92" />
      <circle cx="770.5" cy="91.0" r="2.1" fill="#E7E9F5" fill-opacity="0.92" />
      <circle cx="759.5" cy="102.0" r="2.6" fill="url(#accentGlow)" />
      <circle cx="781.5" cy="102.0" r="2.1" fill="#E7E9F5" fill-opacity="0.92" />
      <circle cx="759.5" cy="113.0" r="2.1" fill="#E7E9F5" fill-opacity="0.92" />
      <circle cx="792.5" cy="113.0" r="2.1" fill="#E7E9F5" fill-opacity="0.92" />
      <circle cx="759.5" cy="124.0" r="2.1" fill="#E7E9F5" fill-opacity="0.92" />
      <circle cx="803.5" cy="124.0" r="2.6" fill="url(#accentGlow)" />
      <circle cx="836.5" cy="58.0" r="2.1" fill="#E7E9F5" fill-opacity="0.92" />
      <circle cx="880.5" cy="58.0" r="2.1" fill="#E7E9F5" fill-opacity="0.92" />
      <circle cx="836.5" cy="69.0" r="2.1" fill="#E7E9F5" fill-opacity="0.92" />
      <circle cx="880.5" cy="69.0" r="2.1" fill="#E7E9F5" fill-opacity="0.92" />
      <circle cx="836.5" cy="80.0" r="2.6" fill="url(#accentGlow)" />
      <circle cx="880.5" cy="80.0" r="2.1" fill="#E7E9F5" fill-opacity="0.92" />
      <circle cx="836.5" cy="91.0" r="2.1" fill="#E7E9F5" fill-opacity="0.92" />
      <circle cx="847.5" cy="91.0" r="2.1" fill="#E7E9F5" fill-opacity="0.92" />
      <circle cx="858.5" cy="91.0" r="2.1" fill="#E7E9F5" fill-opacity="0.92" />
      <circle cx="869.5" cy="91.0" r="2.6" fill="url(#accentGlow)" />
      <circle cx="880.5" cy="91.0" r="2.1" fill="#E7E9F5" fill-opacity="0.92" />
      <circle cx="836.5" cy="102.0" r="2.1" fill="#E7E9F5" fill-opacity="0.92" />
      <circle cx="880.5" cy="102.0" r="2.1" fill="#E7E9F5" fill-opacity="0.92" />
      <circle cx="836.5" cy="113.0" r="2.1" fill="#E7E9F5" fill-opacity="0.92" />
      <circle cx="880.5" cy="113.0" r="2.6" fill="url(#accentGlow)" />
      <circle cx="836.5" cy="124.0" r="2.1" fill="#E7E9F5" fill-opacity="0.92" />
      <circle cx="880.5" cy="124.0" r="2.1" fill="#E7E9F5" fill-opacity="0.92" />
      <circle cx="924.5" cy="58.0" r="2.1" fill="#E7E9F5" fill-opacity="0.92" />
      <circle cx="935.5" cy="58.0" r="2.1" fill="#E7E9F5" fill-opacity="0.92" />
      <circle cx="946.5" cy="58.0" r="2.6" fill="url(#accentGlow)" />
      <circle cx="913.5" cy="69.0" r="2.1" fill="#E7E9F5" fill-opacity="0.92" />
      <circle cx="957.5" cy="69.0" r="2.1" fill="#E7E9F5" fill-opacity="0.92" />
      <circle cx="913.5" cy="80.0" r="2.1" fill="#E7E9F5" fill-opacity="0.92" />
      <circle cx="957.5" cy="80.0" r="2.1" fill="#E7E9F5" fill-opacity="0.92" />
      <circle cx="913.5" cy="91.0" r="2.6" fill="url(#accentGlow)" />
      <circle cx="924.5" cy="91.0" r="2.1" fill="#E7E9F5" fill-opacity="0.92" />
      <circle cx="935.5" cy="91.0" r="2.1" fill="#E7E9F5" fill-opacity="0.92" />
      <circle cx="946.5" cy="91.0" r="2.1" fill="#E7E9F5" fill-opacity="0.92" />
      <circle cx="957.5" cy="91.0" r="2.1" fill="#E7E9F5" fill-opacity="0.92" />
      <circle cx="913.5" cy="102.0" r="2.6" fill="url(#accentGlow)" />
      <circle cx="957.5" cy="102.0" r="2.1" fill="#E7E9F5" fill-opacity="0.92" />
      <circle cx="913.5" cy="113.0" r="2.1" fill="#E7E9F5" fill-opacity="0.92" />
      <circle cx="957.5" cy="113.0" r="2.1" fill="#E7E9F5" fill-opacity="0.92" />
      <circle cx="913.5" cy="124.0" r="2.1" fill="#E7E9F5" fill-opacity="0.92" />
      <circle cx="957.5" cy="124.0" r="2.6" fill="url(#accentGlow)" />
      <circle cx="990.5" cy="58.0" r="2.1" fill="#E7E9F5" fill-opacity="0.92" />
      <circle cx="1034.5" cy="58.0" r="2.1" fill="#E7E9F5" fill-opacity="0.92" />
      <circle cx="990.5" cy="69.0" r="2.1" fill="#E7E9F5" fill-opacity="0.92" />
      <circle cx="1001.5" cy="69.0" r="2.1" fill="#E7E9F5" fill-opacity="0.92" />
      <circle cx="1034.5" cy="69.0" r="2.6" fill="url(#accentGlow)" />
      <circle cx="990.5" cy="80.0" r="2.1" fill="#E7E9F5" fill-opacity="0.92" />
      <circle cx="1012.5" cy="80.0" r="2.1" fill="#E7E9F5" fill-opacity="0.92" />
      <circle cx="1034.5" cy="80.0" r="2.1" fill="#E7E9F5" fill-opacity="0.92" />
      <circle cx="990.5" cy="91.0" r="2.1" fill="#E7E9F5" fill-opacity="0.92" />
      <circle cx="1012.5" cy="91.0" r="2.6" fill="url(#accentGlow)" />
      <circle cx="1034.5" cy="91.0" r="2.1" fill="#E7E9F5" fill-opacity="0.92" />
      <circle cx="990.5" cy="102.0" r="2.1" fill="#E7E9F5" fill-opacity="0.92" />
      <circle cx="1023.5" cy="102.0" r="2.1" fill="#E7E9F5" fill-opacity="0.92" />
      <circle cx="1034.5" cy="102.0" r="2.1" fill="#E7E9F5" fill-opacity="0.92" />
      <circle cx="990.5" cy="113.0" r="2.6" fill="url(#accentGlow)" />
      <circle cx="1034.5" cy="113.0" r="2.1" fill="#E7E9F5" fill-opacity="0.92" />
      <circle cx="990.5" cy="124.0" r="2.1" fill="#E7E9F5" fill-opacity="0.92" />
      <circle cx="1034.5" cy="124.0" r="2.1" fill="#E7E9F5" fill-opacity="0.92" />
  </g>

  <!-- hairline divider -->
  <rect x="430.0" y="168" width="340" height="1" fill="url(#hairline)" />

  <!-- subtitle -->
  <text x="600.0" y="198" text-anchor="middle" font-family="'JetBrains Mono','Fira Code',ui-monospace,monospace" font-size="15" letter-spacing="2.5" fill="#B9B4D6">FULL STACK DEVELOPER • AI-ASSISTED BUILDER • STUDENT ENGINEER</text>
</svg>
